<?xml version="1.0" encoding="UTF-8" standalone="no" ?>
<!DOCTYPE svg PUBLIC "-//W3C//DTD SVG 1.1//EN" "http://www.w3.org/Graphics/SVG/1.1/DTD/svg11.dtd">
<svg xmlns="http://www.w3.org/2000/svg" xmlns:xlink="http://www.w3.org/1999/xlink" version="1.1" width="1080" height="1080" viewBox="0 0 1080 1080" xml:space="preserve">
<desc>Created with Fabric.js 5.2.4</desc>
<defs>
</defs>
<g transform="matrix(1 0 0 1 540 540)" id="4ef3b76d-4d0c-40df-989a-70d3e9fbd26a"  >
</g>
<g transform="matrix(1 0 0 1 540 540)" id="9d3fe268-cfbb-4828-aac9-a0440d4eccd7"  >
<rect style="stroke: none; stroke-width: 1; stroke-dasharray: none; stroke-linecap: butt; stroke-dashoffset: 0; stroke-linejoin: miter; stroke-miterlimit: 4; fill: rgb(255,255,255); fill-rule: nonzero; opacity: 1; visibility: hidden;" vector-effect="non-scaling-stroke"  x="-540" y="-540" rx="0" ry="0" width="1080" height="1080" />
</g>
<g transform="matrix(0 0 0 0 0 0)"  >
<g style=""   >
		<g transform="matrix(1 0 0 1 0 0)" id="star"  >
<circle style="stroke: none; stroke-width: 1; stroke-dasharray: none; stroke-linecap: butt; stroke-dashoffset: 0; stroke-linejoin: miter; stroke-miterlimit: 4; fill: rgb(255,164,11); fill-rule: nonzero; opacity: 1;" vector-effect="non-scaling-stroke"  cx="0" cy="0" r="13" />
</g>
		<g transform="matrix(1 0 0 1 2.74 3.14)"  >
<path style="stroke: none; stroke-width: 1; stroke-dasharray: none; stroke-linecap: butt; stroke-dashoffset: 0; stroke-linejoin: miter; stroke-miterlimit: 4; fill: rgb(255,119,18); fill-rule: nonzero; opacity: 1;" vector-effect="non-scaling-stroke"  transform=" translate(-15.74, -16.15)" d="M 15.043 25.83 C 15.0983756336044 25.82368924285451 15.153710111117212 25.81702243833489 15.208999999999998 25.809999999999995 C 15.63615395160301 25.736200015940494 16.059349315003853 25.64108118426128 16.476999999999997 25.525 C 16.894878730054774 25.40965984839525 17.306726635866884 25.273489714220744 17.711 25.116999999999997 C 18.114598901886826 24.959850532033226 18.510092152953906 24.7826295056057 18.896 24.586 C 19.28221780365564 24.389256252790343 19.65835429001592 24.17331986709815 20.022999999999996 23.939 C 20.387694241434474 23.70510401802382 20.74046783063837 23.45312288287818 21.07999999999999 23.184 C 21.41977467232269 22.91447591492339 21.745849099319976 22.62811782038534 22.056999999999995 22.326 C 22.36800567034481 22.023971569969984 22.66370850047501 21.7065749656203 22.942999999999998 21.374999999999996 C 23.222091928350192 21.043320165454215 23.484419648173237 20.697888625992572 23.728999999999996 20.34 C 23.974003390362526 19.98223843828836 24.200953755840224 19.612442842774705 24.409 19.232 C 24.617056556328777 18.85168110355654 24.80595924749927 18.461193208380788 24.974999999999994 18.061999999999998 C 25.12135344968258 17.709921835109267 25.25214656972123 17.35157537867685 25.366999999999997 16.987999999999992 L 19.876999999999995 11.497999999999996 C 19.791999999999994 11.467999999999996 19.719999999999995 11.437999999999995 19.589999999999996 11.405999999999995 C 19.197999999999997 11.309999999999995 18.649999999999995 11.223999999999995 18.085999999999995 11.144999999999996 L 17.665999999999993 11.084999999999996 L 13.040999999999993 6.460999999999996 C 12.985999999999994 6.530999999999996 12.933999999999994 6.591999999999996 12.862999999999992 6.704999999999996 C 12.649999999999993 7.046999999999995 12.398999999999992 7.540999999999996 12.149999999999993 8.050999999999995 C 11.901999999999994 8.560999999999995 11.653999999999993 9.087999999999994 11.429999999999993 9.522999999999994 C 11.329955489850352 9.720536975150338 11.221523434230152 9.913712852701408 11.104999999999993 10.101999999999995 C 11.000999999999994 10.266999999999994 10.926999999999992 10.399999999999995 10.735999999999994 10.534999999999995 C 10.545999999999994 10.670999999999994 10.393999999999993 10.698999999999995 10.202999999999994 10.744999999999996 C 10.012999999999995 10.787999999999995 9.792999999999994 10.825999999999995 9.550999999999995 10.860999999999995 C 9.064999999999994 10.931999999999995 8.483999999999995 10.994999999999996 7.919999999999995 11.063999999999995 C 7.354999999999995 11.133999999999995 6.804999999999994 11.210999999999995 6.411999999999995 11.300999999999995 C 6.281999999999995 11.330999999999994 6.208999999999994 11.359999999999994 6.122999999999995 11.388999999999994 C 6.172999999999995 11.463999999999993 6.2149999999999945 11.530999999999993 6.300999999999995 11.632999999999994 C 6.460999999999995 11.821999999999994 6.670999999999995 12.042999999999994 6.903999999999995 12.274999999999993 L 9.075999999999995 14.446999999999994 C 9.163999999999994 14.555999999999994 9.242999999999995 14.662999999999993 9.295999999999996 14.833999999999994 C 9.366999999999996 15.055999999999994 9.347999999999995 15.207999999999995 9.331999999999995 15.401999999999994 C 9.311345436743776 15.621515845184991 9.281318035135683 15.840048601332787 9.241999999999997 16.056999999999995 C 9.158999999999995 16.538999999999994 9.037999999999995 17.108999999999995 8.929999999999996 17.665999999999997 C 8.826450480675115 18.163290768829533 8.74636188689909 18.665179289825918 8.68999999999999 19.169999999999995 C 8.677999999999995 19.302999999999997 8.681999999999997 19.38 8.683999999999996 19.47 L 15.042999999999996 25.83 z" stroke-linecap="round" />
</g>
		<g transform="matrix(1.07 0 0 0.97 0.01 -0.01)"  >
<path style="stroke: none; stroke-width: 1; stroke-dasharray: none; stroke-linecap: butt; stroke-dashoffset: 0; stroke-linejoin: miter; stroke-miterlimit: 4; fill: rgb(255,255,255); fill-rule: nonzero; opacity: 1;" vector-effect="non-scaling-stroke"  transform=" translate(-78.76, -1022.47)" d="M 78.795 1015.735 C 78.845 1015.809 78.893 1015.872 78.95700000000001 1015.99 C 79.152 1016.345 79.38000000000001 1016.8580000000001 79.605 1017.3870000000001 C 79.83 1017.917 80.053 1018.464 80.257 1018.917 C 80.35900000000001 1019.142 80.455 1019.344 80.551 1019.5160000000001 C 80.646 1019.6880000000001 80.715 1019.826 80.891 1019.969 C 81.06700000000001 1020.1120000000001 81.208 1020.143 81.38600000000001 1020.1930000000001 C 81.56400000000001 1020.2420000000001 81.76800000000001 1020.2830000000001 81.995 1020.3240000000001 C 82.449 1020.4050000000001 82.992 1020.479 83.519 1020.5590000000001 C 84.04700000000001 1020.6400000000001 84.56 1020.729 84.927 1020.8270000000001 C 85.049 1020.8600000000001 85.117 1020.8910000000001 85.197 1020.9220000000001 C 85.148 1020.9980000000002 85.108 1021.0670000000001 85.027 1021.1700000000002 C 84.778 1021.4830000000002 84.404 1021.8800000000002 84.014 1022.2770000000002 C 83.624 1022.6760000000002 83.219 1023.0780000000002 82.89 1023.4300000000002 C 82.725 1023.6060000000002 82.58 1023.7700000000002 82.46 1023.9220000000001 C 82.341 1024.074 82.24199999999999 1024.189 82.17299999999999 1024.4170000000001 C 82.103 1024.6440000000002 82.11999999999999 1024.8010000000002 82.13199999999999 1025.0020000000002 C 82.14399999999999 1025.2020000000002 82.17099999999999 1025.428 82.20599999999999 1025.678 C 82.27599999999998 1026.1760000000002 82.38 1026.765 82.47299999999998 1027.3400000000001 C 82.56599999999999 1027.9150000000002 82.64799999999998 1028.478 82.67599999999999 1028.892 C 82.68499999999999 1029.028 82.67899999999999 1029.1090000000002 82.67599999999999 1029.202 C 82.59599999999999 1029.175 82.52299999999998 1029.154 82.40799999999999 1029.1009999999999 C 82.06099999999999 1028.9389999999999 81.60099999999998 1028.6709999999998 81.13599999999998 1028.388 C 80.66999999999999 1028.1039999999998 80.19599999999998 1027.8059999999998 79.78799999999998 1027.571 C 79.60619421699839 1027.464010421345 79.41967277355187 1027.3652441471766 79.22899999999998 1027.2749999999999 C 79.05999999999999 1027.1979999999999 78.92999999999998 1027.1299999999999 78.71099999999998 1027.128 C 78.49199999999999 1027.128 78.36099999999999 1027.192 78.19099999999999 1027.2659999999998 C 78.02099999999999 1027.341 77.83299999999998 1027.4389999999999 77.62799999999999 1027.552 C 77.21799999999999 1027.779 76.73799999999999 1028.07 76.26799999999999 1028.3449999999998 C 75.79799999999999 1028.62 75.33599999999998 1028.879 74.98599999999999 1029.0349999999999 C 74.86999999999999 1029.0869999999998 74.79799999999999 1029.1059999999998 74.716 1029.1319999999998 C 74.71499999999999 1029.0389999999998 74.71 1028.9579999999999 74.72099999999999 1028.822 C 74.755 1028.4089999999999 74.84499999999998 1027.847 74.94699999999999 1027.274 C 75.04799999999999 1026.7009999999998 75.16099999999999 1026.1139999999998 75.23799999999999 1025.617 C 75.27476828438168 1025.3931781235447 75.3027895975127 1025.1680068573132 75.32199999999999 1024.942 C 75.33699999999999 1024.742 75.356 1024.585 75.28999999999999 1024.356 C 75.22399999999999 1024.127 75.127 1024.011 75.00999999999999 1023.856 C 74.87609516507024 1023.6837798629075 74.73496915420961 1023.5172978784644 74.58699999999999 1023.357 C 74.264 1022.999 73.86399999999999 1022.5899999999999 73.47999999999999 1022.185 C 73.13105817289265 1021.825640916962 72.79903222113374 1021.4502346900989 72.48499999999999 1021.06 C 72.40399999999998 1020.9549999999999 72.36499999999998 1020.886 72.31799999999998 1020.809 C 72.39799999999998 1020.779 72.46699999999998 1020.749 72.58799999999998 1020.718 C 72.95699999999998 1020.625 73.47199999999998 1020.5459999999999 74.00099999999998 1020.4749999999999 C 74.52899999999998 1020.4039999999999 75.07299999999998 1020.3399999999999 75.52799999999998 1020.2669999999999 C 75.75599999999997 1020.231 75.96099999999998 1020.1919999999999 76.13899999999998 1020.146 C 76.31699999999998 1020.1 76.45899999999997 1020.0709999999999 76.63699999999999 1019.9309999999999 C 76.815 1019.7909999999999 76.88699999999999 1019.6539999999999 76.98399999999998 1019.4839999999999 C 77.08199999999998 1019.314 77.18099999999998 1019.1139999999999 77.28599999999999 1018.8899999999999 C 77.49599999999998 1018.4409999999999 77.72799999999998 1017.8979999999999 77.96099999999998 1017.3719999999998 C 78.16307721271043 1016.90068278538 78.38596297020699 1016.4385618660197 78.62899999999999 1015.9869999999999 C 78.695 1015.8699999999999 78.743 1015.8079999999999 78.79499999999999 1015.7349999999999 z" stroke-linecap="round" />
</g>
</g>
</g>
<g transform="matrix(0 0 0 0 0 0)"  >
<g style=""   >
		<g transform="matrix(1 0 0 1 0 0)" id="star"  >
<circle style="stroke: none; stroke-width: 1; stroke-dasharray: none; stroke-linecap: butt; stroke-dashoffset: 0; stroke-linejoin: miter; stroke-miterlimit: 4; fill: rgb(255,164,11); fill-rule: nonzero; opacity: 1;" vector-effect="non-scaling-stroke"  cx="0" cy="0" r="13" />
</g>
		<g transform="matrix(1 0 0 1 2.74 3.14)"  >
<path style="stroke: none; stroke-width: 1; stroke-dasharray: none; stroke-linecap: butt; stroke-dashoffset: 0; stroke-linejoin: miter; stroke-miterlimit: 4; fill: rgb(255,119,18); fill-rule: nonzero; opacity: 1;" vector-effect="non-scaling-stroke"  transform=" translate(-15.74, -16.15)" d="M 15.043 25.83 C 15.0983756336044 25.82368924285451 15.153710111117212 25.81702243833489 15.208999999999998 25.809999999999995 C 15.63615395160301 25.736200015940494 16.059349315003853 25.64108118426128 16.476999999999997 25.525 C 16.894878730054774 25.40965984839525 17.306726635866884 25.273489714220744 17.711 25.116999999999997 C 18.114598901886826 24.959850532033226 18.510092152953906 24.7826295056057 18.896 24.586 C 19.28221780365564 24.389256252790343 19.65835429001592 24.17331986709815 20.022999999999996 23.939 C 20.387694241434474 23.70510401802382 20.74046783063837 23.45312288287818 21.07999999999999 23.184 C 21.41977467232269 22.91447591492339 21.745849099319976 22.62811782038534 22.056999999999995 22.326 C 22.36800567034481 22.023971569969984 22.66370850047501 21.7065749656203 22.942999999999998 21.374999999999996 C 23.222091928350192 21.043320165454215 23.484419648173237 20.697888625992572 23.728999999999996 20.34 C 23.974003390362526 19.98223843828836 24.200953755840224 19.612442842774705 24.409 19.232 C 24.617056556328777 18.85168110355654 24.80595924749927 18.461193208380788 24.974999999999994 18.061999999999998 C 25.12135344968258 17.709921835109267 25.25214656972123 17.35157537867685 25.366999999999997 16.987999999999992 L 19.876999999999995 11.497999999999996 C 19.791999999999994 11.467999999999996 19.719999999999995 11.437999999999995 19.589999999999996 11.405999999999995 C 19.197999999999997 11.309999999999995 18.649999999999995 11.223999999999995 18.085999999999995 11.144999999999996 L 17.665999999999993 11.084999999999996 L 13.040999999999993 6.460999999999996 C 12.985999999999994 6.530999999999996 12.933999999999994 6.591999999999996 12.862999999999992 6.704999999999996 C 12.649999999999993 7.046999999999995 12.398999999999992 7.540999999999996 12.149999999999993 8.050999999999995 C 11.901999999999994 8.560999999999995 11.653999999999993 9.087999999999994 11.429999999999993 9.522999999999994 C 11.329955489850352 9.720536975150338 11.221523434230152 9.913712852701408 11.104999999999993 10.101999999999995 C 11.000999999999994 10.266999999999994 10.926999999999992 10.399999999999995 10.735999999999994 10.534999999999995 C 10.545999999999994 10.670999999999994 10.393999999999993 10.698999999999995 10.202999999999994 10.744999999999996 C 10.012999999999995 10.787999999999995 9.792999999999994 10.825999999999995 9.550999999999995 10.860999999999995 C 9.064999999999994 10.931999999999995 8.483999999999995 10.994999999999996 7.919999999999995 11.063999999999995 C 7.354999999999995 11.133999999999995 6.804999999999994 11.210999999999995 6.411999999999995 11.300999999999995 C 6.281999999999995 11.330999999999994 6.208999999999994 11.359999999999994 6.122999999999995 11.388999999999994 C 6.172999999999995 11.463999999999993 6.2149999999999945 11.530999999999993 6.300999999999995 11.632999999999994 C 6.460999999999995 11.821999999999994 6.670999999999995 12.042999999999994 6.903999999999995 12.274999999999993 L 9.075999999999995 14.446999999999994 C 9.163999999999994 14.555999999999994 9.242999999999995 14.662999999999993 9.295999999999996 14.833999999999994 C 9.366999999999996 15.055999999999994 9.347999999999995 15.207999999999995 9.331999999999995 15.401999999999994 C 9.311345436743776 15.621515845184991 9.281318035135683 15.840048601332787 9.241999999999997 16.056999999999995 C 9.158999999999995 16.538999999999994 9.037999999999995 17.108999999999995 8.929999999999996 17.665999999999997 C 8.826450480675115 18.163290768829533 8.74636188689909 18.665179289825918 8.68999999999999 19.169999999999995 C 8.677999999999995 19.302999999999997 8.681999999999997 19.38 8.683999999999996 19.47 L 15.042999999999996 25.83 z" stroke-linecap="round" />
</g>
		<g transform="matrix(1.07 0 0 0.97 0.01 -0.01)"  >
<path style="stroke: none; stroke-width: 1; stroke-dasharray: none; stroke-linecap: butt; stroke-dashoffset: 0; stroke-linejoin: miter; stroke-miterlimit: 4; fill: rgb(255,255,255); fill-rule: nonzero; opacity: 1;" vector-effect="non-scaling-stroke"  transform=" translate(-78.76, -1022.47)" d="M 78.795 1015.735 C 78.845 1015.809 78.893 1015.872 78.95700000000001 1015.99 C 79.152 1016.345 79.38000000000001 1016.8580000000001 79.605 1017.3870000000001 C 79.83 1017.917 80.053 1018.464 80.257 1018.917 C 80.35900000000001 1019.142 80.455 1019.344 80.551 1019.5160000000001 C 80.646 1019.6880000000001 80.715 1019.826 80.891 1019.969 C 81.06700000000001 1020.1120000000001 81.208 1020.143 81.38600000000001 1020.1930000000001 C 81.56400000000001 1020.2420000000001 81.76800000000001 1020.2830000000001 81.995 1020.3240000000001 C 82.449 1020.4050000000001 82.992 1020.479 83.519 1020.5590000000001 C 84.04700000000001 1020.6400000000001 84.56 1020.729 84.927 1020.8270000000001 C 85.049 1020.8600000000001 85.117 1020.8910000000001 85.197 1020.9220000000001 C 85.148 1020.9980000000002 85.108 1021.0670000000001 85.027 1021.1700000000002 C 84.778 1021.4830000000002 84.404 1021.8800000000002 84.014 1022.2770000000002 C 83.624 1022.6760000000002 83.219 1023.0780000000002 82.89 1023.4300000000002 C 82.725 1023.6060000000002 82.58 1023.7700000000002 82.46 1023.9220000000001 C 82.341 1024.074 82.24199999999999 1024.189 82.17299999999999 1024.4170000000001 C 82.103 1024.6440000000002 82.11999999999999 1024.8010000000002 82.13199999999999 1025.0020000000002 C 82.14399999999999 1025.2020000000002 82.17099999999999 1025.428 82.20599999999999 1025.678 C 82.27599999999998 1026.1760000000002 82.38 1026.765 82.47299999999998 1027.3400000000001 C 82.56599999999999 1027.9150000000002 82.64799999999998 1028.478 82.67599999999999 1028.892 C 82.68499999999999 1029.028 82.67899999999999 1029.1090000000002 82.67599999999999 1029.202 C 82.59599999999999 1029.175 82.52299999999998 1029.154 82.40799999999999 1029.1009999999999 C 82.06099999999999 1028.9389999999999 81.60099999999998 1028.6709999999998 81.13599999999998 1028.388 C 80.66999999999999 1028.1039999999998 80.19599999999998 1027.8059999999998 79.78799999999998 1027.571 C 79.60619421699839 1027.464010421345 79.41967277355187 1027.3652441471766 79.22899999999998 1027.2749999999999 C 79.05999999999999 1027.1979999999999 78.92999999999998 1027.1299999999999 78.71099999999998 1027.128 C 78.49199999999999 1027.128 78.36099999999999 1027.192 78.19099999999999 1027.2659999999998 C 78.02099999999999 1027.341 77.83299999999998 1027.4389999999999 77.62799999999999 1027.552 C 77.21799999999999 1027.779 76.73799999999999 1028.07 76.26799999999999 1028.3449999999998 C 75.79799999999999 1028.62 75.33599999999998 1028.879 74.98599999999999 1029.0349999999999 C 74.86999999999999 1029.0869999999998 74.79799999999999 1029.1059999999998 74.716 1029.1319999999998 C 74.71499999999999 1029.0389999999998 74.71 1028.9579999999999 74.72099999999999 1028.822 C 74.755 1028.4089999999999 74.84499999999998 1027.847 74.94699999999999 1027.274 C 75.04799999999999 1026.7009999999998 75.16099999999999 1026.1139999999998 75.23799999999999 1025.617 C 75.27476828438168 1025.3931781235447 75.3027895975127 1025.1680068573132 75.32199999999999 1024.942 C 75.33699999999999 1024.742 75.356 1024.585 75.28999999999999 1024.356 C 75.22399999999999 1024.127 75.127 1024.011 75.00999999999999 1023.856 C 74.87609516507024 1023.6837798629075 74.73496915420961 1023.5172978784644 74.58699999999999 1023.357 C 74.264 1022.999 73.86399999999999 1022.5899999999999 73.47999999999999 1022.185 C 73.13105817289265 1021.825640916962 72.79903222113374 1021.4502346900989 72.48499999999999 1021.06 C 72.40399999999998 1020.9549999999999 72.36499999999998 1020.886 72.31799999999998 1020.809 C 72.39799999999998 1020.779 72.46699999999998 1020.749 72.58799999999998 1020.718 C 72.95699999999998 1020.625 73.47199999999998 1020.5459999999999 74.00099999999998 1020.4749999999999 C 74.52899999999998 1020.4039999999999 75.07299999999998 1020.3399999999999 75.52799999999998 1020.2669999999999 C 75.75599999999997 1020.231 75.96099999999998 1020.1919999999999 76.13899999999998 1020.146 C 76.31699999999998 1020.1 76.45899999999997 1020.0709999999999 76.63699999999999 1019.9309999999999 C 76.815 1019.7909999999999 76.88699999999999 1019.6539999999999 76.98399999999998 1019.4839999999999 C 77.08199999999998 1019.314 77.18099999999998 1019.1139999999999 77.28599999999999 1018.8899999999999 C 77.49599999999998 1018.4409999999999 77.72799999999998 1017.8979999999999 77.96099999999998 1017.3719999999998 C 78.16307721271043 1016.90068278538 78.38596297020699 1016.4385618660197 78.62899999999999 1015.9869999999999 C 78.695 1015.8699999999999 78.743 1015.8079999999999 78.79499999999999 1015.7349999999999 z" stroke-linecap="round" />
</g>
</g>
</g>
<g transform="matrix(0 0 0 0 0 0)"  >
<g style=""   >
</g>
</g>
<g transform="matrix(0 0 0 0 0 0)"  >
<g style=""   >
		<g transform="matrix(1 0 0 1 0 0)" id="star"  >
<circle style="stroke: none; stroke-width: 1; stroke-dasharray: none; stroke-linecap: butt; stroke-dashoffset: 0; stroke-linejoin: miter; stroke-miterlimit: 4; fill: rgb(255,164,11); fill-rule: nonzero; opacity: 1;" vector-effect="non-scaling-stroke"  cx="0" cy="0" r="13" />
</g>
		<g transform="matrix(1 0 0 1 2.74 3.14)"  >
<path style="stroke: none; stroke-width: 1; stroke-dasharray: none; stroke-linecap: butt; stroke-dashoffset: 0; stroke-linejoin: miter; stroke-miterlimit: 4; fill: rgb(255,119,18); fill-rule: nonzero; opacity: 1;" vector-effect="non-scaling-stroke"  transform=" translate(-15.74, -16.15)" d="M 15.043 25.83 C 15.0983756336044 25.82368924285451 15.153710111117212 25.81702243833489 15.208999999999998 25.809999999999995 C 15.63615395160301 25.736200015940494 16.059349315003853 25.64108118426128 16.476999999999997 25.525 C 16.894878730054774 25.40965984839525 17.306726635866884 25.273489714220744 17.711 25.116999999999997 C 18.114598901886826 24.959850532033226 18.510092152953906 24.7826295056057 18.896 24.586 C 19.28221780365564 24.389256252790343 19.65835429001592 24.17331986709815 20.022999999999996 23.939 C 20.387694241434474 23.70510401802382 20.74046783063837 23.45312288287818 21.07999999999999 23.184 C 21.41977467232269 22.91447591492339 21.745849099319976 22.62811782038534 22.056999999999995 22.326 C 22.36800567034481 22.023971569969984 22.66370850047501 21.7065749656203 22.942999999999998 21.374999999999996 C 23.222091928350192 21.043320165454215 23.484419648173237 20.697888625992572 23.728999999999996 20.34 C 23.974003390362526 19.98223843828836 24.200953755840224 19.612442842774705 24.409 19.232 C 24.617056556328777 18.85168110355654 24.80595924749927 18.461193208380788 24.974999999999994 18.061999999999998 C 25.12135344968258 17.709921835109267 25.25214656972123 17.35157537867685 25.366999999999997 16.987999999999992 L 19.876999999999995 11.497999999999996 C 19.791999999999994 11.467999999999996 19.719999999999995 11.437999999999995 19.589999999999996 11.405999999999995 C 19.197999999999997 11.309999999999995 18.649999999999995 11.223999999999995 18.085999999999995 11.144999999999996 L 17.665999999999993 11.084999999999996 L 13.040999999999993 6.460999999999996 C 12.985999999999994 6.530999999999996 12.933999999999994 6.591999999999996 12.862999999999992 6.704999999999996 C 12.649999999999993 7.046999999999995 12.398999999999992 7.540999999999996 12.149999999999993 8.050999999999995 C 11.901999999999994 8.560999999999995 11.653999999999993 9.087999999999994 11.429999999999993 9.522999999999994 C 11.329955489850352 9.720536975150338 11.221523434230152 9.913712852701408 11.104999999999993 10.101999999999995 C 11.000999999999994 10.266999999999994 10.926999999999992 10.399999999999995 10.735999999999994 10.534999999999995 C 10.545999999999994 10.670999999999994 10.393999999999993 10.698999999999995 10.202999999999994 10.744999999999996 C 10.012999999999995 10.787999999999995 9.792999999999994 10.825999999999995 9.550999999999995 10.860999999999995 C 9.064999999999994 10.931999999999995 8.483999999999995 10.994999999999996 7.919999999999995 11.063999999999995 C 7.354999999999995 11.133999999999995 6.804999999999994 11.210999999999995 6.411999999999995 11.300999999999995 C 6.281999999999995 11.330999999999994 6.208999999999994 11.359999999999994 6.122999999999995 11.388999999999994 C 6.172999999999995 11.463999999999993 6.2149999999999945 11.530999999999993 6.300999999999995 11.632999999999994 C 6.460999999999995 11.821999999999994 6.670999999999995 12.042999999999994 6.903999999999995 12.274999999999993 L 9.075999999999995 14.446999999999994 C 9.163999999999994 14.555999999999994 9.242999999999995 14.662999999999993 9.295999999999996 14.833999999999994 C 9.366999999999996 15.055999999999994 9.347999999999995 15.207999999999995 9.331999999999995 15.401999999999994 C 9.311345436743776 15.621515845184991 9.281318035135683 15.840048601332787 9.241999999999997 16.056999999999995 C 9.158999999999995 16.538999999999994 9.037999999999995 17.108999999999995 8.929999999999996 17.665999999999997 C 8.826450480675115 18.163290768829533 8.74636188689909 18.665179289825918 8.68999999999999 19.169999999999995 C 8.677999999999995 19.302999999999997 8.681999999999997 19.38 8.683999999999996 19.47 L 15.042999999999996 25.83 z" stroke-linecap="round" />
</g>
		<g transform="matrix(1.07 0 0 0.97 0.01 -0.01)"  >
<path style="stroke: none; stroke-width: 1; stroke-dasharray: none; stroke-linecap: butt; stroke-dashoffset: 0; stroke-linejoin: miter; stroke-miterlimit: 4; fill: rgb(255,255,255); fill-rule: nonzero; opacity: 1;" vector-effect="non-scaling-stroke"  transform=" translate(-78.76, -1022.47)" d="M 78.795 1015.735 C 78.845 1015.809 78.893 1015.872 78.95700000000001 1015.99 C 79.152 1016.345 79.38000000000001 1016.8580000000001 79.605 1017.3870000000001 C 79.83 1017.917 80.053 1018.464 80.257 1018.917 C 80.35900000000001 1019.142 80.455 1019.344 80.551 1019.5160000000001 C 80.646 1019.6880000000001 80.715 1019.826 80.891 1019.969 C 81.06700000000001 1020.1120000000001 81.208 1020.143 81.38600000000001 1020.1930000000001 C 81.56400000000001 1020.2420000000001 81.76800000000001 1020.2830000000001 81.995 1020.3240000000001 C 82.449 1020.4050000000001 82.992 1020.479 83.519 1020.5590000000001 C 84.04700000000001 1020.6400000000001 84.56 1020.729 84.927 1020.8270000000001 C 85.049 1020.8600000000001 85.117 1020.8910000000001 85.197 1020.9220000000001 C 85.148 1020.9980000000002 85.108 1021.0670000000001 85.027 1021.1700000000002 C 84.778 1021.4830000000002 84.404 1021.8800000000002 84.014 1022.2770000000002 C 83.624 1022.6760000000002 83.219 1023.0780000000002 82.89 1023.4300000000002 C 82.725 1023.6060000000002 82.58 1023.7700000000002 82.46 1023.9220000000001 C 82.341 1024.074 82.24199999999999 1024.189 82.17299999999999 1024.4170000000001 C 82.103 1024.6440000000002 82.11999999999999 1024.8010000000002 82.13199999999999 1025.0020000000002 C 82.14399999999999 1025.2020000000002 82.17099999999999 1025.428 82.20599999999999 1025.678 C 82.27599999999998 1026.1760000000002 82.38 1026.765 82.47299999999998 1027.3400000000001 C 82.56599999999999 1027.9150000000002 82.64799999999998 1028.478 82.67599999999999 1028.892 C 82.68499999999999 1029.028 82.67899999999999 1029.1090000000002 82.67599999999999 1029.202 C 82.59599999999999 1029.175 82.52299999999998 1029.154 82.40799999999999 1029.1009999999999 C 82.06099999999999 1028.9389999999999 81.60099999999998 1028.6709999999998 81.13599999999998 1028.388 C 80.66999999999999 1028.1039999999998 80.19599999999998 1027.8059999999998 79.78799999999998 1027.571 C 79.60619421699839 1027.464010421345 79.41967277355187 1027.3652441471766 79.22899999999998 1027.2749999999999 C 79.05999999999999 1027.1979999999999 78.92999999999998 1027.1299999999999 78.71099999999998 1027.128 C 78.49199999999999 1027.128 78.36099999999999 1027.192 78.19099999999999 1027.2659999999998 C 78.02099999999999 1027.341 77.83299999999998 1027.4389999999999 77.62799999999999 1027.552 C 77.21799999999999 1027.779 76.73799999999999 1028.07 76.26799999999999 1028.3449999999998 C 75.79799999999999 1028.62 75.33599999999998 1028.879 74.98599999999999 1029.0349999999999 C 74.86999999999999 1029.0869999999998 74.79799999999999 1029.1059999999998 74.716 1029.1319999999998 C 74.71499999999999 1029.0389999999998 74.71 1028.9579999999999 74.72099999999999 1028.822 C 74.755 1028.4089999999999 74.84499999999998 1027.847 74.94699999999999 1027.274 C 75.04799999999999 1026.7009999999998 75.16099999999999 1026.1139999999998 75.23799999999999 1025.617 C 75.27476828438168 1025.3931781235447 75.3027895975127 1025.1680068573132 75.32199999999999 1024.942 C 75.33699999999999 1024.742 75.356 1024.585 75.28999999999999 1024.356 C 75.22399999999999 1024.127 75.127 1024.011 75.00999999999999 1023.856 C 74.87609516507024 1023.6837798629075 74.73496915420961 1023.5172978784644 74.58699999999999 1023.357 C 74.264 1022.999 73.86399999999999 1022.5899999999999 73.47999999999999 1022.185 C 73.13105817289265 1021.825640916962 72.79903222113374 1021.4502346900989 72.48499999999999 1021.06 C 72.40399999999998 1020.9549999999999 72.36499999999998 1020.886 72.31799999999998 1020.809 C 72.39799999999998 1020.779 72.46699999999998 1020.749 72.58799999999998 1020.718 C 72.95699999999998 1020.625 73.47199999999998 1020.5459999999999 74.00099999999998 1020.4749999999999 C 74.52899999999998 1020.4039999999999 75.07299999999998 1020.3399999999999 75.52799999999998 1020.2669999999999 C 75.75599999999997 1020.231 75.96099999999998 1020.1919999999999 76.13899999999998 1020.146 C 76.31699999999998 1020.1 76.45899999999997 1020.0709999999999 76.63699999999999 1019.9309999999999 C 76.815 1019.7909999999999 76.88699999999999 1019.6539999999999 76.98399999999998 1019.4839999999999 C 77.08199999999998 1019.314 77.18099999999998 1019.1139999999999 77.28599999999999 1018.8899999999999 C 77.49599999999998 1018.4409999999999 77.72799999999998 1017.8979999999999 77.96099999999998 1017.3719999999998 C 78.16307721271043 1016.90068278538 78.38596297020699 1016.4385618660197 78.62899999999999 1015.9869999999999 C 78.695 1015.8699999999999 78.743 1015.8079999999999 78.79499999999999 1015.7349999999999 z" stroke-linecap="round" />
</g>
</g>
</g>
<g transform="matrix(1 0 0 1 540 540)"  >
<g style="" vector-effect="non-scaling-stroke"   >
		<g transform="matrix(1 0 0 1 0 0)"  >
<circle style="stroke: none; stroke-width: 1; stroke-dasharray: none; stroke-linecap: butt; stroke-dashoffset: 0; stroke-linejoin: miter; stroke-miterlimit: 4; fill: rgb(255,164,11); fill-rule: nonzero; opacity: 1;" vector-effect="non-scaling-stroke"  cx="0" cy="0" r="13" />
</g>
		<g transform="matrix(1 0 0 1 2.74 3.14)"  >
<path style="stroke: none; stroke-width: 1; stroke-dasharray: none; stroke-linecap: butt; stroke-dashoffset: 0; stroke-linejoin: miter; stroke-miterlimit: 4; fill: rgb(255,119,18); fill-rule: nonzero; opacity: 1;" vector-effect="non-scaling-stroke"  transform=" translate(-15.74, -16.15)" d="M 15.043 25.83 C 15.0983756336044 25.82368924285451 15.153710111117212 25.81702243833489 15.208999999999998 25.809999999999995 C 15.63615395160301 25.736200015940494 16.059349315003853 25.64108118426128 16.476999999999997 25.525 C 16.894878730054774 25.40965984839525 17.306726635866884 25.273489714220744 17.711 25.116999999999997 C 18.114598901886826 24.959850532033226 18.510092152953906 24.7826295056057 18.896 24.586 C 19.28221780365564 24.389256252790343 19.65835429001592 24.17331986709815 20.022999999999996 23.939 C 20.387694241434474 23.70510401802382 20.74046783063837 23.45312288287818 21.07999999999999 23.184 C 21.41977467232269 22.91447591492339 21.745849099319976 22.62811782038534 22.056999999999995 22.326 C 22.36800567034481 22.023971569969984 22.66370850047501 21.7065749656203 22.942999999999998 21.374999999999996 C 23.222091928350192 21.043320165454215 23.484419648173237 20.697888625992572 23.728999999999996 20.34 C 23.974003390362526 19.98223843828836 24.200953755840224 19.612442842774705 24.409 19.232 C 24.617056556328777 18.85168110355654 24.80595924749927 18.461193208380788 24.974999999999994 18.061999999999998 C 25.12135344968258 17.709921835109267 25.25214656972123 17.35157537867685 25.366999999999997 16.987999999999992 L 19.876999999999995 11.497999999999996 C 19.791999999999994 11.467999999999996 19.719999999999995 11.437999999999995 19.589999999999996 11.405999999999995 C 19.197999999999997 11.309999999999995 18.649999999999995 11.223999999999995 18.085999999999995 11.144999999999996 L 17.665999999999993 11.084999999999996 L 13.040999999999993 6.460999999999996 C 12.985999999999994 6.530999999999996 12.933999999999994 6.591999999999996 12.862999999999992 6.704999999999996 C 12.649999999999993 7.046999999999995 12.398999999999992 7.540999999999996 12.149999999999993 8.050999999999995 C 11.901999999999994 8.560999999999995 11.653999999999993 9.087999999999994 11.429999999999993 9.522999999999994 C 11.329955489850352 9.720536975150338 11.221523434230152 9.913712852701408 11.104999999999993 10.101999999999995 C 11.000999999999994 10.266999999999994 10.926999999999992 10.399999999999995 10.735999999999994 10.534999999999995 C 10.545999999999994 10.670999999999994 10.393999999999993 10.698999999999995 10.202999999999994 10.744999999999996 C 10.012999999999995 10.787999999999995 9.792999999999994 10.825999999999995 9.550999999999995 10.860999999999995 C 9.064999999999994 10.931999999999995 8.483999999999995 10.994999999999996 7.919999999999995 11.063999999999995 C 7.354999999999995 11.133999999999995 6.804999999999994 11.210999999999995 6.411999999999995 11.300999999999995 C 6.281999999999995 11.330999999999994 6.208999999999994 11.359999999999994 6.122999999999995 11.388999999999994 C 6.172999999999995 11.463999999999993 6.2149999999999945 11.530999999999993 6.300999999999995 11.632999999999994 C 6.460999999999995 11.821999999999994 6.670999999999995 12.042999999999994 6.903999999999995 12.274999999999993 L 9.075999999999995 14.446999999999994 C 9.163999999999994 14.555999999999994 9.242999999999995 14.662999999999993 9.295999999999996 14.833999999999994 C 9.366999999999996 15.055999999999994 9.347999999999995 15.207999999999995 9.331999999999995 15.401999999999994 C 9.311345436743776 15.621515845184991 9.281318035135683 15.840048601332787 9.241999999999997 16.056999999999995 C 9.158999999999995 16.538999999999994 9.037999999999995 17.108999999999995 8.929999999999996 17.665999999999997 C 8.826450480675115 18.163290768829533 8.74636188689909 18.665179289825918 8.68999999999999 19.169999999999995 C 8.677999999999995 19.302999999999997 8.681999999999997 19.38 8.683999999999996 19.47 L 15.042999999999996 25.83 z" stroke-linecap="round" />
</g>
		<g transform="matrix(1.07 0 0 0.97 0.01 -0.01)"  >
<path style="stroke: none; stroke-width: 1; stroke-dasharray: none; stroke-linecap: butt; stroke-dashoffset: 0; stroke-linejoin: miter; stroke-miterlimit: 4; fill: rgb(255,255,255); fill-rule: nonzero; opacity: 1;" vector-effect="non-scaling-stroke"  transform=" translate(-78.76, -1022.47)" d="M 78.795 1015.735 C 78.845 1015.809 78.893 1015.872 78.95700000000001 1015.99 C 79.152 1016.345 79.38000000000001 1016.8580000000001 79.605 1017.3870000000001 C 79.83 1017.917 80.053 1018.464 80.257 1018.917 C 80.35900000000001 1019.142 80.455 1019.344 80.551 1019.5160000000001 C 80.646 1019.6880000000001 80.715 1019.826 80.891 1019.969 C 81.06700000000001 1020.1120000000001 81.208 1020.143 81.38600000000001 1020.1930000000001 C 81.56400000000001 1020.2420000000001 81.76800000000001 1020.2830000000001 81.995 1020.3240000000001 C 82.449 1020.4050000000001 82.992 1020.479 83.519 1020.5590000000001 C 84.04700000000001 1020.6400000000001 84.56 1020.729 84.927 1020.8270000000001 C 85.049 1020.8600000000001 85.117 1020.8910000000001 85.197 1020.9220000000001 C 85.148 1020.9980000000002 85.108 1021.0670000000001 85.027 1021.1700000000002 C 84.778 1021.4830000000002 84.404 1021.8800000000002 84.014 1022.2770000000002 C 83.624 1022.6760000000002 83.219 1023.0780000000002 82.89 1023.4300000000002 C 82.725 1023.6060000000002 82.58 1023.7700000000002 82.46 1023.9220000000001 C 82.341 1024.074 82.24199999999999 1024.189 82.17299999999999 1024.4170000000001 C 82.103 1024.6440000000002 82.11999999999999 1024.8010000000002 82.13199999999999 1025.0020000000002 C 82.14399999999999 1025.2020000000002 82.17099999999999 1025.428 82.20599999999999 1025.678 C 82.27599999999998 1026.1760000000002 82.38 1026.765 82.47299999999998 1027.3400000000001 C 82.56599999999999 1027.9150000000002 82.64799999999998 1028.478 82.67599999999999 1028.892 C 82.68499999999999 1029.028 82.67899999999999 1029.1090000000002 82.67599999999999 1029.202 C 82.59599999999999 1029.175 82.52299999999998 1029.154 82.40799999999999 1029.1009999999999 C 82.06099999999999 1028.9389999999999 81.60099999999998 1028.6709999999998 81.13599999999998 1028.388 C 80.66999999999999 1028.1039999999998 80.19599999999998 1027.8059999999998 79.78799999999998 1027.571 C 79.60619421699839 1027.464010421345 79.41967277355187 1027.3652441471766 79.22899999999998 1027.2749999999999 C 79.05999999999999 1027.1979999999999 78.92999999999998 1027.1299999999999 78.71099999999998 1027.128 C 78.49199999999999 1027.128 78.36099999999999 1027.192 78.19099999999999 1027.2659999999998 C 78.02099999999999 1027.341 77.83299999999998 1027.4389999999999 77.62799999999999 1027.552 C 77.21799999999999 1027.779 76.73799999999999 1028.07 76.26799999999999 1028.3449999999998 C 75.79799999999999 1028.62 75.33599999999998 1028.879 74.98599999999999 1029.0349999999999 C 74.86999999999999 1029.0869999999998 74.79799999999999 1029.1059999999998 74.716 1029.1319999999998 C 74.71499999999999 1029.0389999999998 74.71 1028.9579999999999 74.72099999999999 1028.822 C 74.755 1028.4089999999999 74.84499999999998 1027.847 74.94699999999999 1027.274 C 75.04799999999999 1026.7009999999998 75.16099999999999 1026.1139999999998 75.23799999999999 1025.617 C 75.27476828438168 1025.3931781235447 75.3027895975127 1025.1680068573132 75.32199999999999 1024.942 C 75.33699999999999 1024.742 75.356 1024.585 75.28999999999999 1024.356 C 75.22399999999999 1024.127 75.127 1024.011 75.00999999999999 1023.856 C 74.87609516507024 1023.6837798629075 74.73496915420961 1023.5172978784644 74.58699999999999 1023.357 C 74.264 1022.999 73.86399999999999 1022.5899999999999 73.47999999999999 1022.185 C 73.13105817289265 1021.825640916962 72.79903222113374 1021.4502346900989 72.48499999999999 1021.06 C 72.40399999999998 1020.9549999999999 72.36499999999998 1020.886 72.31799999999998 1020.809 C 72.39799999999998 1020.779 72.46699999999998 1020.749 72.58799999999998 1020.718 C 72.95699999999998 1020.625 73.47199999999998 1020.5459999999999 74.00099999999998 1020.4749999999999 C 74.52899999999998 1020.4039999999999 75.07299999999998 1020.3399999999999 75.52799999999998 1020.2669999999999 C 75.75599999999997 1020.231 75.96099999999998 1020.1919999999999 76.13899999999998 1020.146 C 76.31699999999998 1020.1 76.45899999999997 1020.0709999999999 76.63699999999999 1019.9309999999999 C 76.815 1019.7909999999999 76.88699999999999 1019.6539999999999 76.98399999999998 1019.4839999999999 C 77.08199999999998 1019.314 77.18099999999998 1019.1139999999999 77.28599999999999 1018.8899999999999 C 77.49599999999998 1018.4409999999999 77.72799999999998 1017.8979999999999 77.96099999999998 1017.3719999999998 C 78.16307721271043 1016.90068278538 78.38596297020699 1016.4385618660197 78.62899999999999 1015.9869999999999 C 78.695 1015.8699999999999 78.743 1015.8079999999999 78.79499999999999 1015.7349999999999 z" stroke-linecap="round" />
</g>
</g>
</g>
<g transform="matrix(1 0 0 1 540 541.13)" style="" id="b312976b-4ffc-4da2-bf88-0f2d7be8f227"  >
		<text xml:space="preserve" font-family="Lato" font-size="7" font-style="normal" font-weight="400" style="stroke: none; stroke-width: 1; stroke-dasharray: none; stroke-linecap: butt; stroke-dashoffset: 0; stroke-linejoin: miter; stroke-miterlimit: 4; fill: rgb(0,0,0); fill-rule: nonzero; opacity: 0.8; white-space: pre;" ><tspan x="-2.03" y="2.2" >1</tspan></text>
</g>
</svg>