<?xml version="1.0"?>
<svg width="26.000000000000004" height="26.000000000000004" xmlns="http://www.w3.org/2000/svg" xmlns:svg="http://www.w3.org/2000/svg">
 <g class="layer">
  <title>Layer 1</title>
  <g id="svg_1" transform="translate(0 -1026.362)">
   <circle cx="13" cy="1039.36" fill="#ffa40b" id="svg_2" r="13"/>
   <path d="m15.04,25.83a13,13 0 0 0 0.17,-0.02a13,13 0 0 0 1.27,-0.29a13,13 0 0 0 1.23,-0.4a13,13 0 0 0 1.19,-0.53a13,13 0 0 0 1.12,-0.65a13,13 0 0 0 1.06,-0.76a13,13 0 0 0 0.98,-0.85a13,13 0 0 0 0.88,-0.95a13,13 0 0 0 0.79,-1.04a13,13 0 0 0 0.68,-1.11a13,13 0 0 0 0.56,-1.17a13,13 0 0 0 0.4,-1.07l-5.49,-5.49c-0.09,-0.03 -0.16,-0.06 -0.29,-0.09c-0.39,-0.1 -0.94,-0.19 -1.5,-0.27l-0.42,-0.06l-4.63,-4.62c-0.05,0.07 -0.11,0.13 -0.18,0.24c-0.21,0.35 -0.46,0.84 -0.71,1.35c-0.25,0.51 -0.5,1.04 -0.72,1.47a7.78,7.78 0 0 1 -0.33,0.58c-0.1,0.17 -0.17,0.3 -0.36,0.43c-0.19,0.14 -0.35,0.17 -0.54,0.21c-0.19,0.05 -0.41,0.09 -0.65,0.12c-0.49,0.07 -1.07,0.13 -1.63,0.2c-0.57,0.07 -1.12,0.15 -1.51,0.24c-0.13,0.03 -0.2,0.06 -0.29,0.09c0.05,0.07 0.09,0.14 0.18,0.24c0.16,0.19 0.37,0.41 0.6,0.64l2.18,2.18c0.08,0.11 0.16,0.21 0.22,0.38c0.07,0.23 0.05,0.38 0.03,0.57a7.74,7.74 0 0 1 -0.09,0.66c-0.08,0.48 -0.2,1.05 -0.31,1.61a16.19,16.19 0 0 0 -0.24,1.5c-0.01,0.13 -0.01,0.21 -0.01,0.3l6.36,6.36z" fill="#ff7712" id="svg_3" transform="translate(0 1026.362)"/>
   <path d="m78.8,1015.74c0.04,0.07 0.09,0.13 0.16,0.25c0.19,0.36 0.42,0.87 0.65,1.4c0.22,0.53 0.44,1.07 0.65,1.53c0.1,0.22 0.19,0.42 0.29,0.6c0.1,0.17 0.17,0.31 0.34,0.45c0.18,0.14 0.32,0.17 0.5,0.22c0.17,0.05 0.38,0.09 0.61,0.13c0.45,0.09 0.99,0.16 1.52,0.24c0.53,0.08 1.04,0.17 1.41,0.27c0.12,0.03 0.19,0.06 0.27,0.09c-0.05,0.08 -0.09,0.15 -0.17,0.25c-0.25,0.31 -0.63,0.71 -1.02,1.11c-0.39,0.4 -0.79,0.8 -1.12,1.15c-0.17,0.18 -0.31,0.34 -0.43,0.49c-0.12,0.15 -0.22,0.27 -0.29,0.5c-0.07,0.22 -0.05,0.38 -0.04,0.58c0.01,0.2 0.04,0.43 0.08,0.68c0.07,0.5 0.17,1.09 0.26,1.66c0.1,0.58 0.18,1.14 0.21,1.55c0,0.14 0,0.22 0,0.31c-0.08,-0.03 -0.16,-0.05 -0.27,-0.1c-0.35,-0.16 -0.81,-0.43 -1.27,-0.71c-0.47,-0.29 -0.94,-0.58 -1.35,-0.82a7.04,7.04 0 0 0 -0.56,-0.3c-0.17,-0.07 -0.3,-0.14 -0.52,-0.14c-0.22,0 -0.35,0.06 -0.52,0.14c-0.17,0.07 -0.36,0.17 -0.56,0.28c-0.41,0.23 -0.89,0.52 -1.36,0.79c-0.47,0.28 -0.93,0.54 -1.28,0.69c-0.12,0.06 -0.19,0.08 -0.27,0.1c-0.01,-0.09 -0.01,-0.17 0,-0.31c0.03,-0.41 0.12,-0.97 0.23,-1.55c0.1,-0.57 0.21,-1.16 0.29,-1.65a8.72,8.72 0 0 0 0.08,-0.68c0.02,-0.2 0.04,-0.35 -0.03,-0.58c-0.07,-0.23 -0.16,-0.35 -0.28,-0.5a7.74,7.74 0 0 0 -0.42,-0.5c-0.33,-0.36 -0.73,-0.77 -1.11,-1.18a16.14,16.14 0 0 1 -1,-1.12c-0.08,-0.11 -0.12,-0.17 -0.16,-0.25c0.08,-0.03 0.15,-0.06 0.27,-0.09c0.37,-0.09 0.88,-0.17 1.41,-0.25c0.53,-0.07 1.07,-0.13 1.53,-0.2c0.23,-0.04 0.43,-0.08 0.61,-0.12s0.32,-0.08 0.5,-0.22s0.25,-0.28 0.34,-0.45c0.1,-0.17 0.2,-0.37 0.31,-0.59c0.21,-0.45 0.44,-0.99 0.67,-1.52a17.34,17.34 0 0 1 0.67,-1.38c0.06,-0.12 0.11,-0.18 0.16,-0.26l0.01,0.01z" fill="#fff" id="svg_4" transform="matrix(1.06795 0 0 .97117 -71.11 46.368)"/>
  </g>
  <text fill="#000000" font-family="Serif" font-size="24" id="svg_5" stroke="#000000" stroke-width="0" text-anchor="middle" transform="matrix(0.711564 0 0 0.37011 5.03669 12.0328)" x="11.46" xml:space="preserve" y="13.85">1</text>
 </g>
</svg>